<svg width="200" height="200" viewBox="0 0 200 200" fill="none" xmlns="http://www.w3.org/2000/svg">
<circle cx="100" cy="100" r="100" fill="#FFC527"/>
<path d="M58.3984 152.93V150.06C59.5296 150.06 60.7477 149.625 62.0529 148.755C63.445 147.886 64.6632 146.755 65.7073 145.364C66.8384 144.059 67.752 142.581 68.4481 140.928C69.1442 139.189 69.4487 137.45 69.3617 135.71V62.9202C69.2747 61.2678 68.8397 59.659 68.0566 58.0936C67.3605 56.5282 66.4469 55.1367 65.3158 53.9192C64.2716 52.6147 63.1405 51.6146 61.9224 50.9189C60.7042 50.1362 59.5296 49.7014 58.3984 49.6144V46.875H141.406V73.2256H138.274C137.491 68.7034 136.186 65.1378 134.358 62.5288C132.531 59.9199 130.399 57.9631 127.963 56.6586C125.527 55.2672 122.96 54.3975 120.263 54.0497C117.565 53.6148 114.955 53.3539 112.432 53.267H90.8968V93.706C90.8968 93.706 90.8968 93.9422 90.8968 92.9233V90.3144C90.8968 90.3144 90.8968 87.5317 90.8968 85.7487C90.8968 83.2015 90.8968 68.6698 90.8968 66.1226C90.8968 52.1641 90.8968 128.83 90.8968 114.969C90.8968 101.108 90.8968 108.708 90.8968 108.708V103.881V101.011V99.9676C90.8968 99.9676 90.8968 128.351 90.8968 146.538H112.432C114.955 146.451 117.565 146.19 120.263 145.755C122.96 145.407 125.527 144.537 127.963 143.146C130.399 141.755 132.531 139.754 134.358 137.145C136.186 134.536 137.491 130.971 138.274 126.449H141.406V152.93H58.3984Z" fill="black"/>
<path d="M58.3984 91.6016H130.859" stroke="black" stroke-width="11.7188"/>
<path d="M58.3984 109.18H130.859" stroke="black" stroke-width="11.7188"/>
</svg>
